<svg width="44" height="42" viewBox="0 0 44 42" fill="none" xmlns="http://www.w3.org/2000/svg">
<path d="M24.875 21C29.6179 21 33.8082 16.5339 34.2188 11.0435C34.4227 8.28531 33.5575 5.71309 31.7822 3.80211C30.0257 1.91449 27.5703 0.875 24.875 0.875C22.1581 0.875 19.7009 1.9082 17.957 3.78414C16.1934 5.68074 15.3336 8.25836 15.5313 11.0417C15.9347 16.533 20.1241 21 24.875 21ZM43.5068 37.5097C42.7485 33.3032 40.3811 29.7696 36.6616 27.29C33.3581 25.0879 29.1722 23.875 24.875 23.875C20.5778 23.875 16.392 25.0879 13.0884 27.2891C9.36887 29.7687 7.00149 33.3023 6.2432 37.5088C6.06981 38.4728 6.3052 39.426 6.88918 40.1241C7.15406 40.4423 7.48664 40.6972 7.86264 40.8704C8.23865 41.0435 8.64858 41.1305 9.0625 41.125H40.6875C41.1017 41.1309 41.5119 41.0442 41.8882 40.8712C42.2646 40.6982 42.5975 40.4432 42.8626 40.125C43.4448 39.4269 43.6802 38.4737 43.5068 37.5097ZM8.34375 23.875V20.2812H11.9375C12.3188 20.2812 12.6844 20.1298 12.954 19.8602C13.2236 19.5906 13.375 19.225 13.375 18.8437C13.375 18.4625 13.2236 18.0969 12.954 17.8273C12.6844 17.5577 12.3188 17.4062 11.9375 17.4062H8.34375V13.8125C8.34375 13.4312 8.1923 13.0656 7.92272 12.796C7.65313 12.5264 7.2875 12.375 6.90625 12.375C6.525 12.375 6.15937 12.5264 5.88979 12.796C5.6202 13.0656 5.46875 13.4312 5.46875 13.8125V17.4062H1.875C1.49375 17.4062 1.12812 17.5577 0.858534 17.8273C0.58895 18.0969 0.4375 18.4625 0.4375 18.8437C0.4375 19.225 0.58895 19.5906 0.858534 19.8602C1.12812 20.1298 1.49375 20.2812 1.875 20.2812H5.46875V23.875C5.46875 24.2562 5.6202 24.6219 5.88979 24.8915C6.15937 25.161 6.525 25.3125 6.90625 25.3125C7.2875 25.3125 7.65313 25.161 7.92272 24.8915C8.1923 24.6219 8.34375 24.2562 8.34375 23.875Z" fill="#F8F9FA"/>
</svg>
