<svg width="68" height="68" viewBox="0 0 68 68" fill="none" xmlns="http://www.w3.org/2000/svg">
<rect x="1" y="1" width="66" height="66" rx="33" stroke="#F8F9FA" stroke-width="2"/>
<path d="M36.875 34C41.6179 34 45.8082 29.5339 46.2188 24.0435C46.4227 21.2853 45.5575 18.7131 43.7822 16.8021C42.0257 14.9145 39.5703 13.875 36.875 13.875C34.1581 13.875 31.7009 14.9082 29.957 16.7841C28.1934 18.6807 27.3336 21.2584 27.5313 24.0417C27.9347 29.533 32.1241 34 36.875 34ZM55.5068 50.5097C54.7485 46.3032 52.3811 42.7696 48.6616 40.29C45.3581 38.0879 41.1722 36.875 36.875 36.875C32.5778 36.875 28.392 38.0879 25.0884 40.2891C21.3689 42.7687 19.0015 46.3023 18.2432 50.5088C18.0698 51.4728 18.3052 52.426 18.8892 53.1241C19.1541 53.4423 19.4866 53.6972 19.8626 53.8704C20.2386 54.0435 20.6486 54.1305 21.0625 54.125H52.6875C53.1017 54.1309 53.5119 54.0442 53.8882 53.8712C54.2646 53.6982 54.5975 53.4432 54.8626 53.125C55.4448 52.4269 55.6802 51.4737 55.5068 50.5097ZM20.3438 36.875V33.2812H23.9375C24.3188 33.2812 24.6844 33.1298 24.954 32.8602C25.2236 32.5906 25.375 32.225 25.375 31.8437C25.375 31.4625 25.2236 31.0969 24.954 30.8273C24.6844 30.5577 24.3188 30.4062 23.9375 30.4062H20.3438V26.8125C20.3438 26.4312 20.1923 26.0656 19.9227 25.796C19.6531 25.5264 19.2875 25.375 18.9063 25.375C18.525 25.375 18.1594 25.5264 17.8898 25.796C17.6202 26.0656 17.4688 26.4312 17.4688 26.8125V30.4062H13.875C13.4938 30.4062 13.1281 30.5577 12.8585 30.8273C12.589 31.0969 12.4375 31.4625 12.4375 31.8437C12.4375 32.225 12.589 32.5906 12.8585 32.8602C13.1281 33.1298 13.4938 33.2812 13.875 33.2812H17.4688V36.875C17.4688 37.2562 17.6202 37.6219 17.8898 37.8915C18.1594 38.161 18.525 38.3125 18.9063 38.3125C19.2875 38.3125 19.6531 38.161 19.9227 37.8915C20.1923 37.6219 20.3438 37.2562 20.3438 36.875Z" fill="#F8F9FA"/>
</svg>
