<svg width="300" height="79" viewBox="0 0 300 79" fill="none" xmlns="http://www.w3.org/2000/svg">
<path d="M58 4.02222L106.92 14.5576C109.168 15.0423 111.515 14.7221 113.549 13.655C128.585 5.77501 146.906 8.36462 152.274 9.36951C152.645 9.43977 152.658 9.96534 152.287 10.0552L133.941 15.0912C133.834 15.1161 133.747 15.1899 133.702 15.2886L128.366 26.7391L125.871 34.3479L133.06 37.279L140.471 33.0433L150.747 25.0646C150.851 24.9828 150.986 24.9659 151.106 25.0148L159.08 28.2616C159.142 28.29 159.195 28.3354 159.233 28.3932L168.386 42.3186C168.418 42.3675 168.46 42.4048 168.513 42.4333L175.891 46.4306C175.891 46.4306 175.911 46.4431 175.919 46.452L184.438 52.2635C184.903 52.5792 185.241 53.055 185.381 53.601C185.397 53.6668 185.414 53.7281 185.422 53.794C185.607 54.8896 186.788 63.8741 175.215 61.8634C173.693 61.6001 172.304 62.8238 172.445 64.3543C172.75 67.7442 171.588 72.2672 162.485 70.5233C161.279 70.2929 160.311 71.4837 160.744 72.6282C162.041 76.0591 162.279 80.759 150.595 75.7968C149.607 75.3779 148.713 75.9079 148.512 76.9626C148.277 78.2058 146.89 79.3797 142.126 78.8835C140.5 78.711 138.919 78.2352 137.453 77.5122C131.208 74.4299 112.128 64.2849 98.4144 49.1643C97.0058 47.6134 95.1199 46.5703 93.0494 46.2297L58 40.6111V4.02222Z" fill="#F8F9FA"/>
<path d="M221.525 22.475L220.961 22.7329L221.072 22.9757L220.85 23.2176L221.352 23.6693L221.933 23.029L241.77 13.9752L241.213 12.7515L241.205 12.6653H241.176L236.157 1.57227L228.936 14.3238L221.529 22.475H221.525ZM240.876 13.6461L223.086 21.7645L229.66 14.5292L240.756 13.3918L240.871 13.6461H240.876ZM236.088 3.06183L240.464 12.7435L229.998 13.8151L236.088 3.06183Z" fill="#F8F9FA"/>
<path d="M220.866 23.2833L210.343 26.8787L209.746 26.2998L210.211 19.0228L210.59 19.2531L217.013 8.78704L222.329 14.5905L223.892 0.640259L216.317 8.62697L209.61 8.1014L192.08 12.3575L180.63 18.0383L171.65 16.9543L170.308 16.4251L154.16 10.0552V9.2548L152.95 9.57939L152.637 9.45578L152.806 9.6203L133.883 14.6804L133.686 14.5861L133.607 14.7551L132.879 14.9516L132.871 14.9311L132.574 15.0334L132.212 15.1321L132.269 15.1401L132.233 15.1526L132.751 16.6386L128.308 26.3861L127.869 25.5777L125.909 34.5409L134.769 38.2225L133.957 36.7365L141.01 32.7925L140.981 32.7561L150.953 25.4212L146.194 21.3091L153.345 18.6537L151.736 25.2078L158.648 28.3763L157.94 29.0993L159.014 28.8236L168.529 42.8192C168.611 42.9384 176.1 46.9358 176.1 46.9358L185.269 52.9607L203.599 48.717L203.447 48.0607L203.109 48.1381L203.167 38.5711L216.214 39.4986L210.211 28.4875L231.159 40.8415L220.871 23.2833H220.866ZM229.257 38.9366L210.273 27.7405L210.458 27.5519L220.586 24.1406L229.262 38.9411L229.257 38.9366ZM202.434 47.8473L191.812 42.339L202.492 38.6823L202.434 47.8473ZM201.195 19.4541L202.426 37.2825L194.303 28.6475L194.295 28.5488L201.195 19.4496V19.4541ZM186.538 36.9259L178.357 41.239L178.134 36.3843L186.538 36.9259ZM181.985 19.8685L193.492 28.8361L187.369 35.9691L181.985 19.8685ZM201.648 37.4426L187.93 36.3595L193.989 29.2958L201.648 37.4426ZM179.308 41.4978L187.361 37.2496L190.342 41.9406L179.308 41.4978ZM190.371 42.6227L185.381 51.4791L178.72 42.1505L190.371 42.6183V42.6227ZM191.096 41.8668L188.029 37.0406L201.965 38.1443L191.096 41.8668ZM194.204 27.5555L193.339 18.362L193.451 18.563L194.068 18.2188L200.738 18.9365L194.204 27.5519V27.5555ZM192.631 18.0668L193.566 28.0401L182.161 19.1499L192.627 18.0668H192.631ZM185.929 33.7858L179.543 26.5826L180.811 19.1704L185.929 33.7858ZM186.472 35.4195L186.756 36.2652L178.098 35.6L178.077 35.1278L179.395 27.4363L186.476 35.4195H186.472ZM177.459 34.7338L172.016 25.1304L171.407 18.4323L178.818 26.7925L177.459 34.7383V34.7338ZM170.645 17.5741L171.321 24.9783L160.097 27.8472L170.028 17.6773L170.642 17.5741H170.645ZM177.027 35.3457L166.701 32.2385L171.642 25.84L177.027 35.3457ZM176.974 36.0349L169.039 41.6125L166.619 32.9526L166.52 32.8868L176.974 36.0313V36.0349ZM177.464 36.5151L177.686 41.432L177.364 41.4195L177.406 41.4773L169.859 41.8553L177.459 36.5115L177.464 36.5151ZM178.139 42.5071L184.809 51.8491L176.681 46.5089L178.134 42.5071H178.139ZM191.088 42.7205L202.01 48.3844L185.776 52.1399L191.083 42.7205H191.088ZM201.886 19.6426L209.125 27.158L203.051 36.5231L201.886 19.6426ZM202.311 19.117L209.532 19.0148L209.108 25.6844L202.311 19.117ZM222.999 2.52022L221.822 13.0352L217.425 8.23301L222.999 2.52022ZM209.985 9.37397L215.901 9.30816L210.244 18.5265L210.257 18.3336L201.96 18.4527L201.998 18.4029L195.093 17.6604L209.985 9.37842V9.37397ZM209.647 8.78704L193.928 17.5288L193.253 17.4549L193.224 17.1597H193.183L192.228 13.0147L209.647 8.78704ZM192.508 17.246L181.169 18.3789L191.59 13.2611L192.508 17.2504V17.246ZM178.967 25.9343L171.601 17.6275L180.144 19.0601L178.967 25.9343ZM169.798 16.9463L169.699 17.045L162.621 18.2313L155.511 11.3108L169.793 16.9463H169.798ZM153.365 10.1619L153.485 10.2766V17.7137L135.485 14.9436L153.365 10.1619ZM133.352 15.2966L133.151 15.7395L132.978 15.2388L133.352 15.2966ZM136.321 26.5541L136.905 26.4972L136.745 26.041L144.555 22.2776L140.055 31.5164L136.321 26.5541ZM145.201 20.9481L144.884 21.0672L145.065 21.2229L145.029 21.2967L136.518 25.3972L133.472 16.659L134.007 15.4807L145.243 20.8538L145.197 20.9481H145.201ZM133.069 17.5537L135.909 25.6969L135.736 25.7787L135.435 25.3767L135.333 25.9717L128.96 26.5826L133.072 17.5581L133.069 17.5537ZM126.682 34.1309L128.136 27.4861L133.253 36.8601L126.687 34.1309H126.682ZM128.79 27.2763L135.209 26.6609L133.571 36.0269L128.795 27.2763H128.79ZM134.303 35.7601L135.831 27.0308L140.002 32.5755L134.303 35.7645V35.7601ZM149.87 25.3723L140.574 32.21L140.512 32.1238L145.601 21.6826L149.875 25.3723H149.87ZM146.123 20.6075L146.156 20.5417L136.057 15.7146L152.489 18.2473L146.123 20.611V20.6075ZM154.078 18.4892L154.16 18.5016V18.1486L154.305 17.5705L154.16 17.6239V10.9373L161.575 18.1575L154.415 17.3891L159.003 27.7938L152.522 24.8227L154.078 18.4892ZM162.057 18.8831L159.352 26.9072L155.506 18.1815L162.062 18.8831H162.057ZM162.765 18.892L168.899 17.8613L160.061 26.9152L162.765 18.8876V18.892ZM160.073 28.5488L170.818 25.8036L165.738 32.3781L160.135 28.6964L160.069 28.5533L160.073 28.5488ZM166.034 33.3759L168.204 41.1412L160.415 29.6818L166.034 33.3759ZM177.55 42.1505L176.097 46.1523L169.851 42.5365L177.55 42.1505ZM215.024 38.7356L203.167 37.8899V37.7298L203.134 37.7423L203.125 37.64L209.298 28.2287L215.024 38.7312V38.7356ZM210.133 27.6586L210.17 27.6462L210.261 27.7325L210.133 27.6586Z" fill="#F8F9FA"/>
<path d="M236.084 0.939979C236.956 0.939979 237.669 1.64607 237.669 2.52025C237.669 3.39442 236.96 4.10051 236.084 4.10051C235.207 4.10051 234.498 3.39442 234.498 2.52025C234.498 1.64607 235.207 0.939979 236.084 0.939979ZM221.863 1.58027C221.863 2.44999 222.571 3.16053 223.448 3.16053C224.325 3.16053 225.033 2.45444 225.033 1.58027C225.033 0.706096 224.32 0 223.443 0C222.567 0 221.859 0.706096 221.859 1.58027H221.863ZM227.676 13.8516C227.676 14.7222 228.385 15.4318 229.262 15.4318C230.139 15.4318 230.846 14.7257 230.846 13.8516C230.846 12.9774 230.139 12.2713 229.262 12.2713C228.385 12.2713 227.676 12.9774 227.676 13.8516ZM220.533 13.6097C220.533 14.4794 221.241 15.1899 222.118 15.1899C222.995 15.1899 223.703 14.4839 223.703 13.6097C223.703 12.7355 222.995 12.0294 222.118 12.0294C221.241 12.0294 220.533 12.7355 220.533 13.6097ZM215.498 8.59053C215.498 9.46026 216.206 10.1699 217.083 10.1699C217.96 10.1699 218.668 9.46471 218.668 8.59053C218.668 7.71636 217.96 7.01027 217.083 7.01027C216.206 7.01027 215.498 7.71636 215.498 8.59053ZM219.397 23.6489C219.397 24.5186 220.104 25.2282 220.981 25.2282C221.859 25.2282 222.567 24.523 222.567 23.6489C222.567 22.7747 221.859 22.0686 220.981 22.0686C220.104 22.0686 219.397 22.7747 219.397 23.6489ZM208.676 18.8716C208.676 19.7413 209.384 20.451 210.261 20.451C211.138 20.451 211.845 19.7458 211.845 18.8716C211.845 17.9974 211.138 17.2913 210.261 17.2913C209.384 17.2913 208.676 17.9974 208.676 18.8716ZM208.108 8.43046C208.108 9.30019 208.816 10.0098 209.693 10.0098C210.57 10.0098 211.278 9.30463 211.278 8.43046C211.278 7.55629 210.57 6.85019 209.693 6.85019C208.816 6.85019 208.108 7.55629 208.108 8.43046ZM208.108 27.3714C208.108 28.2412 208.816 28.9508 209.693 28.9508C210.57 28.9508 211.278 28.2456 211.278 27.3714C211.278 26.4973 210.57 25.7912 209.693 25.7912C208.816 25.7912 208.108 26.4973 208.108 27.3714ZM199.906 18.7889C199.906 19.6595 200.614 20.3692 201.491 20.3692C202.368 20.3692 203.076 19.6631 203.076 18.7889C203.076 17.9147 202.368 17.2086 201.491 17.2086C200.614 17.2086 199.906 17.9147 199.906 18.7889ZM192.396 28.7872C192.396 29.6569 193.104 30.3674 193.981 30.3674C194.858 30.3674 195.567 29.6614 195.567 28.7872C195.567 27.913 194.858 27.2069 193.981 27.2069C193.104 27.2069 192.396 27.913 192.396 28.7872ZM191.705 17.9805C191.705 18.8503 192.413 19.5608 193.29 19.5608C194.167 19.5608 194.875 18.8547 194.875 17.9805C194.875 17.1064 194.167 16.4003 193.29 16.4003C192.413 16.4003 191.705 17.1064 191.705 17.9805ZM200.882 48.1755C200.882 49.0452 201.59 49.7557 202.467 49.7557C203.344 49.7557 204.052 49.0496 204.052 48.1755C204.052 47.3013 203.344 46.5952 202.467 46.5952C201.59 46.5952 200.882 47.3013 200.882 48.1755ZM214.036 39.1172C214.036 39.9878 214.744 40.6974 215.622 40.6974C216.499 40.6974 217.206 39.9913 217.206 39.1172C217.206 38.243 216.499 37.5369 215.622 37.5369C214.744 37.5369 214.036 38.243 214.036 39.1172ZM183.828 52.107C183.828 52.9776 184.537 53.6873 185.414 53.6873C186.291 53.6873 186.999 52.9812 186.999 52.107C186.999 51.2328 186.291 50.5267 185.414 50.5267C184.537 50.5267 183.828 51.2328 183.828 52.107ZM138.515 32.3088C138.515 33.1785 139.223 33.8881 140.1 33.8881C140.977 33.8881 141.685 33.1829 141.685 32.3088C141.685 31.4346 140.977 30.7285 140.1 30.7285C139.223 30.7285 138.515 31.4346 138.515 32.3088ZM143.875 21.1446C143.875 22.0152 144.584 22.7249 145.46 22.7249C146.337 22.7249 147.046 22.0188 147.046 21.1446C147.046 20.2705 146.337 19.5653 145.46 19.5653C144.584 19.5653 143.875 20.2705 143.875 21.1446ZM124.71 34.3319C124.71 35.2016 125.419 35.9122 126.296 35.9122C127.173 35.9122 127.88 35.2061 127.88 34.3319C127.88 33.4577 127.173 32.7516 126.296 32.7516C125.419 32.7516 124.71 33.4577 124.71 34.3319ZM132.018 37.086C132.018 37.9558 132.726 38.6663 133.604 38.6663C134.481 38.6663 135.188 37.9602 135.188 37.086C135.188 36.2119 134.481 35.5058 133.604 35.5058C132.726 35.5058 132.018 36.2119 132.018 37.086ZM176.273 41.8633C176.273 42.733 176.982 43.4436 177.859 43.4436C178.735 43.4436 179.444 42.7375 179.444 41.8633C179.444 40.9891 178.735 40.283 177.859 40.283C176.982 40.283 176.273 40.9891 176.273 41.8633ZM189.399 42.1336C189.399 43.0042 190.107 43.7139 190.984 43.7139C191.861 43.7139 192.569 43.0078 192.569 42.1336C192.569 41.2595 191.861 40.5543 190.984 40.5543C190.107 40.5543 189.399 41.2595 189.399 42.1336ZM185.928 36.548C185.928 37.4186 186.637 38.1283 187.514 38.1283C188.391 38.1283 189.099 37.4222 189.099 36.548C189.099 35.6738 188.391 34.9677 187.514 34.9677C186.637 34.9677 185.928 35.6738 185.928 36.548ZM179.411 18.2758C179.411 19.1464 180.119 19.8561 180.996 19.8561C181.873 19.8561 182.581 19.15 182.581 18.2758C182.581 17.4016 181.873 16.6964 180.996 16.6964C180.119 16.6964 179.411 17.4016 179.411 18.2758ZM169.484 25.3768C169.484 26.2465 170.193 26.9561 171.07 26.9561C171.947 26.9561 172.655 26.2509 172.655 25.3768C172.655 24.5026 171.947 23.7965 171.07 23.7965C170.193 23.7965 169.484 24.5026 169.484 25.3768ZM167.109 42.2572C167.109 43.127 167.817 43.8375 168.694 43.8375C169.567 43.8375 170.279 43.1314 170.279 42.2572C170.279 41.3831 169.571 40.677 168.694 40.677C167.821 40.677 167.109 41.3831 167.109 42.2572ZM176.064 35.5182C176.064 36.3879 176.772 37.0985 177.649 37.0985C178.526 37.0985 179.234 36.3924 179.234 35.5182C179.234 34.644 178.526 33.9379 177.649 33.9379C176.772 33.9379 176.064 34.644 176.064 35.5182ZM164.552 32.419C164.552 33.2897 165.26 33.9993 166.137 33.9993C167.014 33.9993 167.723 33.2932 167.723 32.419C167.723 31.5449 167.014 30.8388 166.137 30.8388C165.26 30.8388 164.552 31.5449 164.552 32.419ZM152.674 17.9112C152.674 18.7809 153.382 19.4906 154.259 19.4906C155.136 19.4906 155.844 18.7853 155.844 17.9112C155.844 17.037 155.136 16.3309 154.259 16.3309C153.382 16.3309 152.674 17.037 152.674 17.9112ZM174.66 46.4431C174.66 47.3137 175.368 48.0234 176.245 48.0234C177.122 48.0234 177.83 47.3173 177.83 46.4431C177.83 45.569 177.122 44.8629 176.245 44.8629C175.368 44.8629 174.66 45.569 174.66 46.4431ZM200.849 37.8864C200.849 38.7561 201.557 39.4667 202.434 39.4667C203.311 39.4667 204.019 38.7606 204.019 37.8864C204.019 37.0122 203.311 36.3061 202.434 36.3061C201.557 36.3061 200.849 37.0122 200.849 37.8864ZM169.332 17.1393C169.332 18.009 170.04 18.7195 170.917 18.7195C171.794 18.7195 172.502 18.0134 172.502 17.1393C172.502 16.2651 171.794 15.559 170.917 15.559C170.04 15.559 169.332 16.2651 169.332 17.1393ZM152.493 10.3833C152.493 11.254 153.201 11.9636 154.078 11.9636C154.955 11.9636 155.663 11.2575 155.663 10.3833C155.663 9.50917 154.955 8.80396 154.078 8.80396C153.201 8.80396 152.493 9.50917 152.493 10.3833ZM157.792 28.475C157.792 29.3448 158.5 30.0553 159.377 30.0553C160.254 30.0553 160.961 29.3492 160.961 28.475C160.961 27.6009 160.254 26.8948 159.377 26.8948C158.5 26.8948 157.792 27.6009 157.792 28.475ZM134.097 26.1069C134.097 26.9775 134.805 27.6871 135.682 27.6871C136.559 27.6871 137.268 26.981 137.268 26.1069C137.268 25.2371 136.559 24.5266 135.682 24.5266C134.805 24.5266 134.097 25.2327 134.097 26.1069ZM131.693 15.559C131.693 16.4296 132.401 17.1393 133.278 17.1393C134.155 17.1393 134.863 16.4332 134.863 15.559C134.863 14.6848 134.155 13.9787 133.278 13.9787C132.401 13.9787 131.693 14.6848 131.693 15.559ZM148.96 25.0148C148.96 25.8854 149.668 26.5951 150.545 26.5951C151.422 26.5951 152.131 25.8899 152.131 25.0148C152.131 24.1406 151.422 23.4354 150.545 23.4354C149.668 23.4354 148.96 24.1406 148.96 25.0148ZM160.928 18.5959C160.928 19.4665 161.637 20.1762 162.514 20.1762C163.391 20.1762 164.099 19.4701 164.099 18.5959C164.099 17.7218 163.391 17.0157 162.514 17.0157C161.637 17.0157 160.928 17.7218 160.928 18.5959ZM126.822 26.973C126.822 27.8428 127.53 28.5533 128.407 28.5533C129.284 28.5533 129.993 27.8472 129.993 26.973C129.993 26.0989 129.284 25.3928 128.407 25.3928C127.53 25.3928 126.822 26.0989 126.822 26.973ZM239.83 13.2975C239.83 14.1682 240.539 14.8778 241.416 14.8778C242.292 14.8778 243 14.1717 243 13.2975C243 12.4234 242.292 11.7173 241.416 11.7173C240.539 11.7173 239.83 12.4234 239.83 13.2975ZM228.623 39.8891C228.623 40.7588 229.331 41.4693 230.208 41.4693C231.085 41.4693 231.793 40.7632 231.793 39.8891C231.793 39.0149 231.085 38.3088 230.208 38.3088C229.331 38.3088 228.623 39.0149 228.623 39.8891ZM190.16 12.5221C190.16 13.3918 190.869 14.1023 191.746 14.1023C192.623 14.1023 193.331 13.3963 193.331 12.5221C193.331 11.6479 192.623 10.9418 191.746 10.9418C190.869 10.9418 190.16 11.6479 190.16 12.5221ZM177.735 26.5293C177.735 27.3999 178.443 28.1095 179.32 28.1095C180.198 28.1095 180.905 27.4043 180.905 26.5293C180.905 25.6551 180.198 24.9499 179.32 24.9499C178.443 24.9499 177.735 25.6551 177.735 26.5293Z" fill="#F8F9FA"/>
<path d="M125.023 47.4453C125.689 47.4453 126.255 47.6116 126.722 47.9433C127.187 48.2759 127.543 48.7063 127.789 49.2346C128.036 49.7637 128.16 50.3328 128.16 50.942C128.16 51.5254 128.06 52.0429 127.86 52.4929C127.66 52.9438 127.389 53.3217 127.046 53.6277C126.704 53.9318 126.319 54.1612 125.894 54.3177C125.467 54.4725 125.027 54.549 124.57 54.549H122.625V59.9025H120.638V47.4453H125.023ZM122.625 53.7024H124.01C124.54 53.7024 124.963 53.5663 125.277 53.2933C125.592 53.0185 125.821 52.6699 125.962 52.2475C126.104 51.8233 126.176 51.3884 126.176 50.942C126.176 50.5062 126.104 50.0847 125.962 49.6792C125.821 49.2737 125.592 48.9393 125.277 48.6761C124.963 48.4111 124.54 48.2777 124.01 48.2777H122.625V53.7024Z" fill="#3B7E9B"/>
<path d="M133.612 49.3698C134.098 49.3698 134.538 49.4507 134.936 49.6116C135.333 49.7708 135.651 50.0118 135.889 50.3337C136.126 50.6566 136.246 51.0692 136.246 51.5716V59.9025H134.258V58.2769C133.92 58.9412 133.506 59.4107 133.016 59.6855C132.528 59.9576 132.042 60.0946 131.557 60.0946C131.009 60.0946 130.523 59.9781 130.097 59.746C129.674 59.5139 129.341 59.1751 129.098 58.7286C128.856 58.2831 128.734 57.7415 128.734 57.103C128.734 56.4111 128.824 55.8393 129.002 55.3885C129.18 54.9385 129.421 54.5739 129.726 54.2964C130.033 54.019 130.378 53.7966 130.761 53.6277C131.147 53.4569 131.544 53.3137 131.953 53.1973C132.364 53.079 132.768 52.9536 133.166 52.8202C133.563 52.6877 133.927 52.5169 134.258 52.308V51.5574C134.258 51.0932 134.137 50.7464 133.894 50.5187C133.652 50.2911 133.366 50.1772 133.038 50.1772C132.754 50.1772 132.457 50.2617 132.146 50.4298C131.836 50.5987 131.553 50.846 131.296 51.1732C131.041 51.5005 130.85 51.9016 130.722 52.3755H130.147L129.873 50.7499C130.429 50.2946 131.038 49.9513 131.7 49.7184C132.363 49.4862 133 49.3698 133.612 49.3698ZM132.064 59.0559C132.465 59.0559 132.863 58.8727 133.255 58.5045C133.65 58.1346 133.984 57.6455 134.258 57.0354V53.0301C133.882 53.2577 133.518 53.4427 133.166 53.585C132.817 53.7273 132.493 53.8713 132.196 54.0154C131.898 54.1604 131.64 54.3427 131.421 54.5632C131.202 54.782 131.031 55.0754 130.908 55.4454C130.784 55.8135 130.722 56.2973 130.722 56.8967C130.722 57.5992 130.847 58.1346 131.097 58.5045C131.348 58.8727 131.671 59.0559 132.064 59.0559Z" fill="#3B7E9B"/>
<path d="M139.449 59.9025H137.462V47.4453H139.449V59.9025Z" fill="#3B7E9B"/>
<path d="M142.6 59.9025H140.613V47.4453H142.6V59.9025Z" fill="#3B7E9B"/>
<path d="M145.013 48.4839C144.7 48.4839 144.436 48.3754 144.217 48.1567C143.998 47.9361 143.889 47.6765 143.889 47.3777C143.889 47.0673 143.998 46.8005 144.217 46.5773C144.436 46.355 144.7 46.2429 145.013 46.2429C145.312 46.2429 145.574 46.355 145.798 46.5773C146.021 46.8005 146.133 47.0673 146.133 47.3777C146.133 47.6765 146.021 47.9361 145.798 48.1567C145.574 48.3754 145.312 48.4839 145.013 48.4839ZM146.012 59.9024H144.024V49.5617H146.012V59.9024Z" fill="#3B7E9B"/>
<path d="M152.439 60.0661C151.815 60.0661 151.206 59.9291 150.612 59.657C150.019 59.3849 149.48 58.9758 148.995 58.4298C148.512 57.882 148.129 57.1946 147.846 56.3666C147.562 55.5369 147.421 54.5667 147.421 53.4569C147.421 52.0909 147.643 50.9527 148.085 50.042C148.529 49.1314 149.147 48.4466 149.937 47.986C150.727 47.5262 151.633 47.2959 152.656 47.2959C153.257 47.2959 153.817 47.3973 154.333 47.5983C154.849 47.7975 155.291 48.0954 155.661 48.4911C156.032 48.8877 156.282 49.3804 156.41 49.9709L155.643 51.4613H155.083C155.034 50.6957 154.887 50.0545 154.64 49.5369C154.395 49.0176 154.089 48.6289 153.723 48.3702C153.359 48.1096 152.971 47.9789 152.56 47.9789C152.058 47.9789 151.564 48.1799 151.079 48.58C150.595 48.9811 150.196 49.5849 149.88 50.3906C149.566 51.1945 149.409 52.2172 149.409 53.4569C149.409 54.7304 149.568 55.8002 149.887 56.6655C150.208 57.5316 150.622 58.1808 151.129 58.6148C151.636 59.047 152.167 59.2622 152.724 59.2622C153.061 59.2622 153.406 59.1395 153.759 58.8922C154.11 58.6459 154.428 58.2724 154.712 57.7717C154.994 57.2719 155.2 56.6432 155.329 55.8864H155.903L156.506 57.3876C156.223 57.9265 155.861 58.3978 155.422 58.8033C154.984 59.2088 154.509 59.521 153.998 59.7388C153.486 59.9567 152.967 60.0661 152.439 60.0661Z" fill="#3B7E9B"/>
<path d="M162.108 49.3698C162.594 49.3698 163.034 49.4507 163.432 49.6116C163.829 49.7708 164.147 50.0118 164.385 50.3337C164.622 50.6566 164.742 51.0692 164.742 51.5716V59.9025H162.754V58.2769C162.416 58.9412 162.002 59.4107 161.513 59.6855C161.025 59.9576 160.538 60.0946 160.053 60.0946C159.505 60.0946 159.019 59.9781 158.594 59.746C158.17 59.5139 157.837 59.1751 157.594 58.7286C157.352 58.2831 157.23 57.7415 157.23 57.103C157.23 56.4111 157.32 55.8393 157.498 55.3885C157.677 54.9385 157.917 54.5739 158.222 54.2964C158.529 54.019 158.874 53.7966 159.257 53.6277C159.643 53.4569 160.04 53.3137 160.449 53.1973C160.86 53.079 161.265 52.9536 161.662 52.8202C162.059 52.6877 162.423 52.5169 162.754 52.308V51.5574C162.754 51.0932 162.633 50.7464 162.39 50.5187C162.148 50.2911 161.862 50.1772 161.534 50.1772C161.25 50.1772 160.953 50.2617 160.642 50.4298C160.332 50.5987 160.049 50.846 159.793 51.1732C159.537 51.5005 159.347 51.9016 159.218 52.3755H158.644L158.369 50.7499C158.925 50.2946 159.534 49.9513 160.196 49.7184C160.859 49.4862 161.496 49.3698 162.108 49.3698ZM160.56 59.0559C160.961 59.0559 161.359 58.8727 161.752 58.5045C162.146 58.1346 162.48 57.6455 162.754 57.0354V53.0301C162.378 53.2577 162.014 53.4427 161.662 53.585C161.313 53.7273 160.989 53.8713 160.692 54.0154C160.394 54.1604 160.136 54.3427 159.917 54.5632C159.698 54.782 159.527 55.0754 159.404 55.4454C159.28 55.8135 159.218 56.2973 159.218 56.8967C159.218 57.5992 159.343 58.1346 159.593 58.5045C159.844 58.8727 160.167 59.0559 160.56 59.0559Z" fill="#3B7E9B"/>
<path d="M167.945 59.9024H165.958V49.5618H167.945V52.6778C168.282 52.3675 168.584 52.0358 168.848 51.6818C169.114 51.3261 169.384 50.9873 169.658 50.6645C169.931 50.3399 170.247 50.0758 170.604 49.8712C170.96 49.6649 171.399 49.5618 171.92 49.5618V51.3119C171.306 51.3119 170.639 51.5102 169.918 51.9059C169.198 52.3026 168.539 52.8868 167.945 53.6596V59.9024Z" fill="#3B7E9B"/>
<path d="M180.154 56.6939H180.757L181.028 58.3444C180.882 58.6361 180.632 58.9171 180.275 59.1874C179.918 59.456 179.491 59.6739 178.994 59.8419C178.496 60.01 177.946 60.0945 177.342 60.0945C176.74 60.0945 176.161 59.978 175.604 59.7459C175.047 59.5138 174.549 59.1679 174.109 58.7072C173.671 58.2475 173.324 57.6712 173.067 56.9784C172.812 56.2866 172.685 55.4764 172.685 54.5489C172.685 53.7379 172.807 53.0122 173.053 52.3719C173.3 51.7299 173.642 51.1856 174.08 50.7392C174.52 50.291 175.028 49.9495 175.604 49.7147C176.179 49.4782 176.796 49.359 177.452 49.359C178.292 49.359 178.974 49.496 179.501 49.7681C180.026 50.0411 180.411 50.3968 180.657 50.8352C180.904 51.2719 181.028 51.7352 181.028 52.2261C181.028 52.8735 180.872 53.464 180.56 53.9975C180.251 54.5293 179.824 54.9855 179.279 55.367C178.737 55.7494 178.113 56.0429 177.41 56.2492C176.707 56.4538 175.969 56.5551 175.194 56.5551H174.905C175.142 57.4569 175.508 58.1398 176 58.6041C176.493 59.0692 177.008 59.3013 177.549 59.3013C178.06 59.3013 178.555 59.0878 179.033 58.661C179.513 58.2323 179.887 57.576 180.154 56.6939ZM177.577 50.1096C177.239 50.1096 176.899 50.2083 176.557 50.4048C176.214 50.5996 175.898 50.8877 175.611 51.2692C175.323 51.6516 175.095 52.1185 174.926 52.6707C174.756 53.2212 174.673 53.8473 174.673 54.5489C174.673 54.7935 174.681 55.0282 174.698 55.2532C174.716 55.4764 174.74 55.6925 174.769 55.9006C175.608 55.8819 176.318 55.7637 176.896 55.5449C177.476 55.327 177.942 55.0451 178.295 54.6983C178.646 54.3524 178.899 53.9762 179.055 53.5707C179.212 53.1652 179.29 52.7721 179.29 52.3897C179.29 51.5787 179.119 50.9971 178.776 50.6431C178.434 50.2874 178.034 50.1096 177.577 50.1096Z" fill="#3B7E9B"/>
<line y1="23.5" x2="59" y2="23.5" stroke="#F8F9FA"/>
<line x1="241" y1="13.5" x2="300" y2="13.5" stroke="#F8F9FA"/>
</svg>
