<svg width="72" height="73" viewBox="0 0 72 73" fill="none" xmlns="http://www.w3.org/2000/svg">
<path d="M60.3705 25.326L61.1803 23.4629C62.604 20.167 65.2113 17.5245 68.4878 16.0566L70.9862 14.9408C71.2893 14.8013 71.546 14.5779 71.726 14.297C71.906 14.0161 72.0017 13.6895 72.0017 13.3558C72.0017 13.0222 71.906 12.6956 71.726 12.4147C71.546 12.1337 71.2893 11.9103 70.9862 11.7709L68.626 10.7209C65.2672 9.21123 62.6153 6.47092 61.2165 3.06444L60.3804 1.05323C60.2581 0.741686 60.0448 0.474219 59.7682 0.285696C59.4917 0.0971721 59.1647 -0.00366211 58.83 -0.00366211C58.4953 -0.00366211 58.1684 0.0971721 57.8919 0.285696C57.6153 0.474219 57.402 0.741686 57.2797 1.05323L56.4469 3.06115C55.0496 6.46827 52.3988 9.20976 49.0406 10.7209L46.6772 11.7742C46.375 11.914 46.1192 12.1374 45.9399 12.418C45.7606 12.6985 45.6653 13.0245 45.6653 13.3575C45.6653 13.6904 45.7606 14.0165 45.9399 14.297C46.1192 14.5776 46.375 14.8009 46.6772 14.9408L49.1789 16.0534C52.4547 17.5226 55.0608 20.1664 56.4831 23.4629L57.2928 25.326C57.8853 26.6887 59.7747 26.6887 60.3705 25.326ZM40.3539 17.5741C41.2558 19.0005 42.4891 20.0549 44.0538 20.7374L45.9135 21.5504C47.1644 22.0969 48.1782 22.8627 48.955 23.848V39.4999C48.955 43.8649 47.221 48.0512 44.1345 51.1377C41.048 54.2242 36.8617 55.9582 32.4967 55.9582C28.1317 55.9582 23.9454 54.2242 20.8589 51.1377C17.7724 48.0512 16.0384 43.8649 16.0384 39.4999V19.7499C16.0384 16.6948 16.8887 13.7 18.4942 11.1007C20.0998 8.5015 22.3971 6.40044 25.129 5.03279C27.8608 3.66513 30.9195 3.08487 33.9625 3.35695C37.0054 3.62904 39.9126 4.74273 42.3585 6.57336C41.5685 7.16585 40.8992 7.89441 40.3506 8.75902C39.5123 10.0754 39.0722 11.606 39.0833 13.1666C39.0833 14.7597 39.5047 16.2289 40.3539 17.5741ZM0.215332 45.9516L6.67358 44.6612C7.87303 50.6272 11.101 55.9939 15.809 59.8496C20.517 63.7053 26.4147 65.8121 32.5 65.8121C38.5854 65.8121 44.483 63.7053 49.191 59.8496C53.899 55.9939 57.127 50.6272 58.3264 44.6612L64.7847 45.9516C61.7827 61.0439 48.4712 72.4166 32.5 72.4166C16.5288 72.4166 3.21733 61.0439 0.215332 45.9549" fill="#F8F9FA"/>
</svg>
