<svg width="68" height="68" viewBox="0 0 68 68" fill="none" xmlns="http://www.w3.org/2000/svg">
<g clip-path="url(#clip0_304_1571)">
<path fill-rule="evenodd" clip-rule="evenodd" d="M45.3333 25.5C45.3333 28.5058 44.1393 31.3885 42.0138 33.5139C39.8884 35.6393 37.0057 36.8333 34 36.8333C30.9942 36.8333 28.1115 35.6393 25.9861 33.5139C23.8607 31.3885 22.6666 28.5058 22.6666 25.5C22.6666 22.4942 23.8607 19.6115 25.9861 17.4861C28.1115 15.3607 30.9942 14.1667 34 14.1667C37.0057 14.1667 39.8884 15.3607 42.0138 17.4861C44.1393 19.6115 45.3333 22.4942 45.3333 25.5ZM39.6666 25.5C39.6666 27.0029 39.0696 28.4442 38.0069 29.5069C36.9442 30.5696 35.5029 31.1667 34 31.1667C32.4971 31.1667 31.0557 30.5696 29.993 29.5069C28.9303 28.4442 28.3333 27.0029 28.3333 25.5C28.3333 23.9971 28.9303 22.5558 29.993 21.4931C31.0557 20.4304 32.4971 19.8333 34 19.8333C35.5029 19.8333 36.9442 20.4304 38.0069 21.4931C39.0696 22.5558 39.6666 23.9971 39.6666 25.5Z" fill="#F8F9FA"/>
<path fill-rule="evenodd" clip-rule="evenodd" d="M34 2.83333C16.7875 2.83333 2.83331 16.7875 2.83331 34C2.83331 51.2125 16.7875 65.1667 34 65.1667C51.2125 65.1667 65.1666 51.2125 65.1666 34C65.1666 16.7875 51.2125 2.83333 34 2.83333ZM8.49998 34C8.49998 39.9217 10.5201 45.373 13.906 49.7023C16.2844 46.5804 19.3521 44.0502 22.8696 42.3094C26.3872 40.5686 30.2594 39.6641 34.1841 39.6667C38.0584 39.6621 41.8825 40.5424 45.3648 42.2404C48.8472 43.9384 51.8958 46.4092 54.2781 49.4643C56.7331 46.2445 58.386 42.4864 59.1002 38.501C59.8143 34.5156 59.5692 30.4174 58.3851 26.5455C57.2009 22.6736 55.1118 19.1393 52.2905 16.2351C49.4693 13.3309 45.997 11.1403 42.1611 9.84444C38.3251 8.54862 34.2357 8.18485 30.2313 8.78326C26.2268 9.38166 22.4224 10.925 19.1328 13.2857C15.8433 15.6463 13.1631 18.7563 11.3141 22.3584C9.46515 25.9605 8.50049 29.9511 8.49998 34ZM34 59.5C28.1461 59.5095 22.4687 57.4956 17.9293 53.7993C19.7563 51.1831 22.1884 49.047 25.0185 47.573C27.8487 46.0989 30.9931 45.3306 34.1841 45.3333C37.3353 45.3306 40.4417 46.0798 43.2451 47.5187C46.0486 48.9576 48.4682 51.0448 50.303 53.6067C45.7285 57.4232 39.9575 59.5093 34 59.5Z" fill="#F8F9FA"/>
</g>
<defs>
<clipPath id="clip0_304_1571">
<rect width="68" height="68" fill="white"/>
</clipPath>
</defs>
</svg>
