<svg width="61" height="61" viewBox="0 0 61 61" fill="none" xmlns="http://www.w3.org/2000/svg">
<path d="M30.5 0.875C31.3062 0.875106 32.0844 1.17111 32.6869 1.70685C33.2894 2.2426 33.6743 2.98084 33.7686 3.78154L33.7917 4.16667V56.8333C33.7907 57.6723 33.4695 58.4793 32.8935 59.0893C32.3176 59.6994 31.5304 60.0665 30.6929 60.1157C29.8554 60.1649 29.0307 59.8924 28.3873 59.3539C27.7439 58.8154 27.3305 58.0516 27.2314 57.2185L27.2083 56.8333V4.16667C27.2083 3.29366 27.5551 2.45641 28.1724 1.83911C28.7897 1.2218 29.627 0.875 30.5 0.875ZM17.3333 10.75C18.2063 10.75 19.0436 11.0968 19.6609 11.7141C20.2782 12.3314 20.625 13.1687 20.625 14.0417V46.9583C20.625 47.8313 20.2782 48.6686 19.6609 49.2859C19.0436 49.9032 18.2063 50.25 17.3333 50.25C16.4603 50.25 15.6231 49.9032 15.0058 49.2859C14.3885 48.6686 14.0417 47.8313 14.0417 46.9583V14.0417C14.0417 13.1687 14.3885 12.3314 15.0058 11.7141C15.6231 11.0968 16.4603 10.75 17.3333 10.75ZM43.6667 10.75C44.5397 10.75 45.3769 11.0968 45.9942 11.7141C46.6115 12.3314 46.9583 13.1687 46.9583 14.0417V46.9583C46.9583 47.8313 46.6115 48.6686 45.9942 49.2859C45.3769 49.9032 44.5397 50.25 43.6667 50.25C42.7937 50.25 41.9564 49.9032 41.3391 49.2859C40.7218 48.6686 40.375 47.8313 40.375 46.9583V14.0417C40.375 13.1687 40.7218 12.3314 41.3391 11.7141C41.9564 11.0968 42.7937 10.75 43.6667 10.75ZM4.16667 20.625C5.03967 20.625 5.87692 20.9718 6.49423 21.5891C7.11153 22.2064 7.45833 23.0437 7.45833 23.9167V37.0833C7.45833 37.9563 7.11153 38.7936 6.49423 39.4109C5.87692 40.0282 5.03967 40.375 4.16667 40.375C3.29366 40.375 2.45641 40.0282 1.83911 39.4109C1.2218 38.7936 0.875 37.9563 0.875 37.0833V23.9167C0.875 23.0437 1.2218 22.2064 1.83911 21.5891C2.45641 20.9718 3.29366 20.625 4.16667 20.625ZM56.8333 20.625C57.6396 20.6251 58.4177 20.9211 59.0202 21.4569C59.6227 21.9926 60.0076 22.7308 60.102 23.5315L60.125 23.9167V37.0833C60.1241 37.9223 59.8028 38.7293 59.2269 39.3393C58.6509 39.9494 57.8638 40.3165 57.0262 40.3657C56.1887 40.4149 55.364 40.1424 54.7206 39.6039C54.0773 39.0654 53.6638 38.3016 53.5647 37.4685L53.5417 37.0833V23.9167C53.5417 23.0437 53.8885 22.2064 54.5058 21.5891C55.1231 20.9718 55.9603 20.625 56.8333 20.625Z" fill="#F8F9FA"/>
</svg>
