<svg width="37" height="39" viewBox="0 0 37 39" fill="none" xmlns="http://www.w3.org/2000/svg">
<path d="M36.5728 0.473232C36.3645 0.254962 36.1013 0.10384 35.8142 0.0376346C35.5271 -0.0285708 35.228 -0.00710754 34.9521 0.0995009L0.996074 13.0988C0.703231 13.2158 0.45111 13.4237 0.273197 13.6951C0.0952846 13.9665 0 14.2884 0 14.6181C0 14.9479 0.0952846 15.2698 0.273197 15.5412C0.45111 15.8125 0.703231 16.0205 0.996074 16.1374L14.2544 21.7109L24.0399 11.3764L26.2162 13.6676L16.3843 24.0183L21.6938 37.9763C21.8082 38.2786 22.0062 38.5379 22.2621 38.7204C22.518 38.9029 22.8201 39.0003 23.1293 39C23.4412 38.9933 23.7438 38.8872 23.9973 38.6957C24.2508 38.5043 24.4432 38.2365 24.5492 37.9276L36.8969 2.17939C37.0021 1.89191 37.0274 1.57887 36.97 1.27679C36.9126 0.974708 36.7749 0.696024 36.5728 0.473232Z" fill="#2A5674"/>
</svg>
